<?xml version="1.0" standalone="no"?>
<!DOCTYPE svg PUBLIC "-//W3C//DTD SVG 20010904//EN"
 "http://www.w3.org/TR/2001/REC-SVG-20010904/DTD/svg10.dtd">
<svg version="1.0" xmlns="http://www.w3.org/2000/svg"
 width="1001.000000pt" height="1001.000000pt" viewBox="0 0 1001.000000 1001.000000"
 preserveAspectRatio="xMidYMid meet">

<g transform="translate(0.000000,1001.000000) scale(0.100000,-0.100000)"
fill="#000000" stroke="none">
<path d="M4215 8118 c-429 -248 -1120 -648 -1535 -888 l-755 -436 -2 -1789 -2
-1790 697 -402 c383 -220 1076 -620 1540 -888 464 -268 849 -485 856 -482 7 3
361 206 787 452 426 246 1115 644 1531 884 l757 436 -2 1790 -2 1790 -745 430
c-1957 1131 -2330 1345 -2337 1344 -4 0 -359 -203 -788 -451z m1916 -541 c613
-354 1236 -713 1384 -799 l270 -156 0 -1617 0 -1618 -895 -516 c-492 -285
-1115 -644 -1383 -799 -269 -155 -494 -282 -501 -282 -11 0 -1444 823 -2556
1468 l-225 130 0 1617 0 1616 910 526 c501 289 1124 648 1384 799 261 151 480
274 486 274 7 0 513 -289 1126 -643z"/>
</g>
</svg>
