<?xml version="1.0" encoding="utf-8"?>
<!-- Generator: Adobe Illustrator 28.2.0, SVG Export Plug-In . SVG Version: 6.00 Build 0)  -->
<svg version="1.1"
     id="Layer_1" text-rendering="geometricPrecision" shape-rendering="geometricPrecision" image-rendering="optimizeQuality"
     xmlns="http://www.w3.org/2000/svg" xmlns:xlink="http://www.w3.org/1999/xlink" x="0px" y="0px" viewBox="0 0 512 507.3"
     style="enable-background:new 0 0 512 507.3;" xml:space="preserve">
<style type="text/css">
    .st0{fill:#27272A;}
</style>
<path class="st0" d="M256.3,282.1H255C255.4,281.7,255.9,281.7,256.3,282.1L256.3,282.1z M283.6,317.5l-27.8-30.3L228.5,318
    c-0.5,0.5-1,0.6-1.5,0.4c-0.4-0.2-0.8-0.6-1.1-1.1l0,0c-0.3-0.5-0.5-1.2-0.6-2l0-0.1c-0.1-0.9-0.1-1.9,0.2-2.9l27.2-116.4
    c0.2-0.8,0.5-1.4,0.9-1.8l0,0c0.3-0.4,0.7-0.6,1.1-0.6l0,0c0.4,0,0.7,0.2,1.1,0.6c0.3,0.4,0.7,1,0.9,1.8
    c10.4,37.8,19.4,78.2,29.9,115.9c0.3,1,0.3,2,0.2,2.9c-0.1,0.8-0.3,1.6-0.6,2.2v0c-0.3,0.6-0.6,1-1.1,1.2c-0.4,0.2-0.9,0.1-1.4-0.3
    C283.7,317.7,283.6,317.5,283.6,317.5z"/>
<path class="st0" d="M256,329.6"/>
</svg>